<?xml version="1.0" standalone="no"?><!DOCTYPE svg PUBLIC "-//W3C//DTD SVG 1.1//EN" "http://www.w3.org/Graphics/SVG/1.1/DTD/svg11.dtd"><svg t="1735287265950" class="icon" viewBox="0 0 1024 1024" version="1.1" xmlns="http://www.w3.org/2000/svg" p-id="9048" data-darkreader-inline-fill="" xmlns:xlink="http://www.w3.org/1999/xlink" width="200" height="200"><path d="M874.4 377.8c33 0 60-27 60-60s-27-60-60-60-60 27-60 60 26.9 60 60 60z" fill="#5100A1" p-id="9049" data-darkreader-inline-fill="" style="--darkreader-inline-fill: #ae5bff;"></path><path d="M870.9 312m-60 0a60 60 0 1 0 120 0 60 60 0 1 0-120 0Z" fill="#5102A2" p-id="9050" data-darkreader-inline-fill="" style="--darkreader-inline-fill: #ab5bfd;"></path><path d="M867.4 306.3m-60 0a60 60 0 1 0 120 0 60 60 0 1 0-120 0Z" fill="#5105A3" p-id="9051" data-darkreader-inline-fill="" style="--darkreader-inline-fill: #a85bfa;"></path><path d="M863.8 300.6m-60 0a60 60 0 1 0 120 0 60 60 0 1 0-120 0Z" fill="#5107A4" p-id="9052" data-darkreader-inline-fill="" style="--darkreader-inline-fill: #a55bf8;"></path><path d="M860.1 295m-60 0a60 60 0 1 0 120 0 60 60 0 1 0-120 0Z" fill="#510AA5" p-id="9053" data-darkreader-inline-fill="" style="--darkreader-inline-fill: #a25bf5;"></path><path d="M856.3 289.5m-60 0a60 60 0 1 0 120 0 60 60 0 1 0-120 0Z" fill="#510CA6" p-id="9054" data-darkreader-inline-fill="" style="--darkreader-inline-fill: #9f5bf3;"></path><path d="M852.4 284m-60 0a60 60 0 1 0 120 0 60 60 0 1 0-120 0Z" fill="#510FA7" p-id="9055" data-darkreader-inline-fill="" style="--darkreader-inline-fill: #9c5bf0;"></path><path d="M848.4 278.6m-60 0a60 60 0 1 0 120 0 60 60 0 1 0-120 0Z" fill="#5211A8" p-id="9056" data-darkreader-inline-fill="" style="--darkreader-inline-fill: #9b5bee;"></path><path d="M844.3 273.2m-60 0a60 60 0 1 0 120 0 60 60 0 1 0-120 0Z" fill="#5214A8" p-id="9057" data-darkreader-inline-fill="" style="--darkreader-inline-fill: #985cec;"></path><path d="M840.1 267.9m-60 0a60 60 0 1 0 120 0 60 60 0 1 0-120 0Z" fill="#5216A9" p-id="9058" data-darkreader-inline-fill="" style="--darkreader-inline-fill: #965cea;"></path><path d="M835.8 262.7m-60 0a60 60 0 1 0 120 0 60 60 0 1 0-120 0Z" fill="#5219AA" p-id="9059" data-darkreader-inline-fill="" style="--darkreader-inline-fill: #925ce7;"></path><path d="M831.5 257.6m-60 0a60 60 0 1 0 120 0 60 60 0 1 0-120 0Z" fill="#521BAB" p-id="9060" data-darkreader-inline-fill="" style="--darkreader-inline-fill: #905be5;"></path><path d="M827 252.6m-60 0a60 60 0 1 0 120 0 60 60 0 1 0-120 0Z" fill="#521EAC" p-id="9061" data-darkreader-inline-fill="" style="--darkreader-inline-fill: #8d5be2;"></path><path d="M822.5 247.6m-60 0a60 60 0 1 0 120 0 60 60 0 1 0-120 0Z" fill="#5220AD" p-id="9062" data-darkreader-inline-fill="" style="--darkreader-inline-fill: #8a5be1;"></path><path d="M817.8 242.7m-60 0a60 60 0 1 0 120 0 60 60 0 1 0-120 0Z" fill="#5223AE" p-id="9063" data-darkreader-inline-fill="" style="--darkreader-inline-fill: #875bde;"></path><path d="M813.1 237.9m-60 0a60 60 0 1 0 120 0 60 60 0 1 0-120 0Z" fill="#5225AF" p-id="9064" data-darkreader-inline-fill="" style="--darkreader-inline-fill: #855adc;"></path><path d="M808.3 233.2m-60 0a60 60 0 1 0 120 0 60 60 0 1 0-120 0Z" fill="#5228B0" p-id="9065" data-darkreader-inline-fill="" style="--darkreader-inline-fill: #825ada;"></path><path d="M803.5 228.5m-60 0a60 60 0 1 0 120 0 60 60 0 1 0-120 0Z" fill="#522AB1" p-id="9066" data-darkreader-inline-fill="" style="--darkreader-inline-fill: #7f5ad8;"></path><path d="M798.5 224m-60 0a60 60 0 1 0 120 0 60 60 0 1 0-120 0Z" fill="#522DB2" p-id="9067" data-darkreader-inline-fill="" style="--darkreader-inline-fill: #7c5ad5;"></path><path d="M793.5 219.5m-60 0a60 60 0 1 0 120 0 60 60 0 1 0-120 0Z" fill="#532FB3" p-id="9068" data-darkreader-inline-fill="" style="--darkreader-inline-fill: #7b59d3;"></path><path d="M788.4 215.1m-60 0a60 60 0 1 0 120 0 60 60 0 1 0-120 0Z" fill="#5332B4" p-id="9069" data-darkreader-inline-fill="" style="--darkreader-inline-fill: #7859d1;"></path><path d="M783.2 210.8m-60 0a60 60 0 1 0 120 0 60 60 0 1 0-120 0Z" fill="#5334B5" p-id="9070" data-darkreader-inline-fill="" style="--darkreader-inline-fill: #7559cf;"></path><path d="M777.9 206.6m-60 0a60 60 0 1 0 120 0 60 60 0 1 0-120 0Z" fill="#5337B5" p-id="9071" data-darkreader-inline-fill="" style="--darkreader-inline-fill: #7359cd;"></path><path d="M772.6 202.5m-60 0a60 60 0 1 0 120 0 60 60 0 1 0-120 0Z" fill="#5339B6" p-id="9072" data-darkreader-inline-fill="" style="--darkreader-inline-fill: #7159cb;"></path><path d="M767.2 198.5m-60 0a60 60 0 1 0 120 0 60 60 0 1 0-120 0Z" fill="#533CB7" p-id="9073" data-darkreader-inline-fill="" style="--darkreader-inline-fill: #6d58c8;"></path><path d="M761.8 194.6m-60 0a60 60 0 1 0 120 0 60 60 0 1 0-120 0Z" fill="#533EB8" p-id="9074" data-darkreader-inline-fill="" style="--darkreader-inline-fill: #6b58c7;"></path><path d="M756.2 190.7m-60 0a60 60 0 1 0 120 0 60 60 0 1 0-120 0Z" fill="#5341B9" p-id="9075" data-darkreader-inline-fill="" style="--darkreader-inline-fill: #6858c4;"></path><path d="M750.6 187m-60 0a60 60 0 1 0 120 0 60 60 0 1 0-120 0Z" fill="#5343BA" p-id="9076" data-darkreader-inline-fill="" style="--darkreader-inline-fill: #6657c3;"></path><path d="M745 183.4m-60 0a60 60 0 1 0 120 0 60 60 0 1 0-120 0Z" fill="#5346BB" p-id="9077" data-darkreader-inline-fill="" style="--darkreader-inline-fill: #6458c2;"></path><path d="M739.2 179.8m-60 0a60 60 0 1 0 120 0 60 60 0 1 0-120 0Z" fill="#5348BC" p-id="9078" data-darkreader-inline-fill="" style="--darkreader-inline-fill: #645ac2;"></path><path d="M733.4 176.4m-60 0a60 60 0 1 0 120 0 60 60 0 1 0-120 0Z" fill="#534BBD" p-id="9079" data-darkreader-inline-fill="" style="--darkreader-inline-fill: #5c7fc3;"></path><path d="M727.6 173.1m-60 0a60 60 0 1 0 120 0 60 60 0 1 0-120 0Z" fill="#534DBE" p-id="9080" data-darkreader-inline-fill="" style="--darkreader-inline-fill: #5d80c4;"></path><path d="M721.7 169.8m-60 0a60 60 0 1 0 120 0 60 60 0 1 0-120 0Z" fill="#5450BF" p-id="9081" data-darkreader-inline-fill="" style="--darkreader-inline-fill: #5f83c5;"></path><path d="M715.7 166.7m-60 0a60 60 0 1 0 120 0 60 60 0 1 0-120 0Z" fill="#5452C0" p-id="9082" data-darkreader-inline-fill="" style="--darkreader-inline-fill: #6185c5;"></path><path d="M709.7 163.6m-60 0a60 60 0 1 0 120 0 60 60 0 1 0-120 0Z" fill="#5455C1" p-id="9083" data-darkreader-inline-fill="" style="--darkreader-inline-fill: #6287c6;"></path><path d="M703.7 160.8m-60 0a60 60 0 1 0 120 0 60 60 0 1 0-120 0Z" fill="#5457C2" p-id="9084" data-darkreader-inline-fill="" style="--darkreader-inline-fill: #6288c7;"></path><path d="M697.6 157.9m-60 0a60 60 0 1 0 120 0 60 60 0 1 0-120 0Z" fill="#545AC3" p-id="9085" data-darkreader-inline-fill="" style="--darkreader-inline-fill: #6289c8;"></path><path d="M691.4 155.2m-60 0a60 60 0 1 0 120 0 60 60 0 1 0-120 0Z" fill="#545CC3" p-id="9086" data-darkreader-inline-fill="" style="--darkreader-inline-fill: #628ac8;"></path><path d="M685.2 152.6m-60 0a60 60 0 1 0 120 0 60 60 0 1 0-120 0Z" fill="#545FC4" p-id="9087" data-darkreader-inline-fill="" style="--darkreader-inline-fill: #618bc9;"></path><path d="M678.9 150.1m-60 0a60 60 0 1 0 120 0 60 60 0 1 0-120 0Z" fill="#5461C5" p-id="9088" data-darkreader-inline-fill="" style="--darkreader-inline-fill: #618cc9;"></path><path d="M672.7 147.7m-60 0a60 60 0 1 0 120 0 60 60 0 1 0-120 0Z" fill="#5464C6" p-id="9089" data-darkreader-inline-fill="" style="--darkreader-inline-fill: #618dca;"></path><path d="M666.3 145.4m-60 0a60 60 0 1 0 120 0 60 60 0 1 0-120 0Z" fill="#5466C7" p-id="9090" data-darkreader-inline-fill="" style="--darkreader-inline-fill: #618ecb;"></path><path d="M659.9 143.3m-60 0a60 60 0 1 0 120 0 60 60 0 1 0-120 0Z" fill="#5469C8" p-id="9091" data-darkreader-inline-fill="" style="--darkreader-inline-fill: #618fcc;"></path><path d="M653.5 141.2m-60 0a60 60 0 1 0 120 0 60 60 0 1 0-120 0Z" fill="#546BC9" p-id="9092" data-darkreader-inline-fill="" style="--darkreader-inline-fill: #6190cd;"></path><path d="M647.1 139.3m-60 0a60 60 0 1 0 120 0 60 60 0 1 0-120 0Z" fill="#546ECA" p-id="9093" data-darkreader-inline-fill="" style="--darkreader-inline-fill: #6091ce;"></path><path d="M640.6 137.4m-60 0a60 60 0 1 0 120 0 60 60 0 1 0-120 0Z" fill="#5570CB" p-id="9094" data-darkreader-inline-fill="" style="--darkreader-inline-fill: #6192cf;"></path><path d="M634.1 135.7m-60 0a60 60 0 1 0 120 0 60 60 0 1 0-120 0Z" fill="#5573CC" p-id="9095" data-darkreader-inline-fill="" style="--darkreader-inline-fill: #6194d0;"></path><path d="M627.6 134.1m-60 0a60 60 0 1 0 120 0 60 60 0 1 0-120 0Z" fill="#5575CD" p-id="9096" data-darkreader-inline-fill="" style="--darkreader-inline-fill: #6195d0;"></path><path d="M621 132.6m-60 0a60 60 0 1 0 120 0 60 60 0 1 0-120 0Z" fill="#5578CE" p-id="9097" data-darkreader-inline-fill="" style="--darkreader-inline-fill: #6096d1;"></path><path d="M614.4 131.2m-60 0a60 60 0 1 0 120 0 60 60 0 1 0-120 0Z" fill="#557ACF" p-id="9098" data-darkreader-inline-fill="" style="--darkreader-inline-fill: #6097d2;"></path><path d="M607.8 130m-60 0a60 60 0 1 0 120 0 60 60 0 1 0-120 0Z" fill="#557DD0" p-id="9099" data-darkreader-inline-fill="" style="--darkreader-inline-fill: #6098d3;"></path><path d="M601.2 128.8m-60 0a60 60 0 1 0 120 0 60 60 0 1 0-120 0Z" fill="#557FD0" p-id="9100" data-darkreader-inline-fill="" style="--darkreader-inline-fill: #6099d3;"></path><path d="M594.5 127.8m-60 0a60 60 0 1 0 120 0 60 60 0 1 0-120 0Z" fill="#5582D1" p-id="9101" data-darkreader-inline-fill="" style="--darkreader-inline-fill: #609ad4;"></path><path d="M587.9 126.8m-60 0a60 60 0 1 0 120 0 60 60 0 1 0-120 0Z" fill="#5584D2" p-id="9102" data-darkreader-inline-fill="" style="--darkreader-inline-fill: #609bd5;"></path><path d="M581.2 126.1m-60 0a60 60 0 1 0 120 0 60 60 0 1 0-120 0Z" fill="#5587D3" p-id="9103" data-darkreader-inline-fill="" style="--darkreader-inline-fill: #5f9cd6;"></path><path d="M574.5 125.3m-60 0a60 60 0 1 0 120 0 60 60 0 1 0-120 0Z" fill="#5589D4" p-id="9104" data-darkreader-inline-fill="" style="--darkreader-inline-fill: #5f9dd7;"></path><path d="M567.8 124.8m-60 0a60 60 0 1 0 120 0 60 60 0 1 0-120 0Z" fill="#558CD5" p-id="9105" data-darkreader-inline-fill="" style="--darkreader-inline-fill: #5f9ed7;"></path><path d="M561.1 124.3m-60 0a60 60 0 1 0 120 0 60 60 0 1 0-120 0Z" fill="#568ED6" p-id="9106" data-darkreader-inline-fill="" style="--darkreader-inline-fill: #609fd8;"></path><path d="M554.4 124m-60 0a60 60 0 1 0 120 0 60 60 0 1 0-120 0Z" fill="#5691D7" p-id="9107" data-darkreader-inline-fill="" style="--darkreader-inline-fill: #5fa1d9;"></path><path d="M547.6 123.8m-60 0a60 60 0 1 0 120 0 60 60 0 1 0-120 0Z" fill="#5693D8" p-id="9108" data-darkreader-inline-fill="" style="--darkreader-inline-fill: #5fa2da;"></path><path d="M540.9 123.6m-60 0a60 60 0 1 0 120 0 60 60 0 1 0-120 0Z" fill="#5696D9" p-id="9109" data-darkreader-inline-fill="" style="--darkreader-inline-fill: #5fa3db;"></path><path d="M534.2 123.7m-60 0a60 60 0 1 0 120 0 60 60 0 1 0-120 0Z" fill="#5698DA" p-id="9110" data-darkreader-inline-fill="" style="--darkreader-inline-fill: #5fa4dc;"></path><path d="M527.5 123.9m-60 0a60 60 0 1 0 120 0 60 60 0 1 0-120 0Z" fill="#569BDB" p-id="9111" data-darkreader-inline-fill="" style="--darkreader-inline-fill: #5fa5dd;"></path><path d="M520.7 124m-60 0a60 60 0 1 0 120 0 60 60 0 1 0-120 0Z" fill="#569DDC" p-id="9112" data-darkreader-inline-fill="" style="--darkreader-inline-fill: #5ea6de;"></path><path d="M514 124.4m-60 0a60 60 0 1 0 120 0 60 60 0 1 0-120 0Z" fill="#56A0DD" p-id="9113" data-darkreader-inline-fill="" style="--darkreader-inline-fill: #5ea7df;"></path><path d="M507.3 124.9m-60 0a60 60 0 1 0 120 0 60 60 0 1 0-120 0Z" fill="#56A2DD" p-id="9114" data-darkreader-inline-fill="" style="--darkreader-inline-fill: #5ea8df;"></path><path d="M500.6 125.4m-60 0a60 60 0 1 0 120 0 60 60 0 1 0-120 0Z" fill="#56A5DE" p-id="9115" data-darkreader-inline-fill="" style="--darkreader-inline-fill: #5ea9e0;"></path><path d="M493.9 126.2m-60 0a60 60 0 1 0 120 0 60 60 0 1 0-120 0Z" fill="#56A7DF" p-id="9116" data-darkreader-inline-fill="" style="--darkreader-inline-fill: #5eabe0;"></path><path d="M487.2 127m-60 0a60 60 0 1 0 120 0 60 60 0 1 0-120 0Z" fill="#56AAE0" p-id="9117" data-darkreader-inline-fill="" style="--darkreader-inline-fill: #5eaee1;"></path><path d="M480.5 127.9m-60 0a60 60 0 1 0 120 0 60 60 0 1 0-120 0Z" fill="#56ACE1" p-id="9118" data-darkreader-inline-fill="" style="--darkreader-inline-fill: #5db0e2;"></path><path d="M473.9 129m-60 0a60 60 0 1 0 120 0 60 60 0 1 0-120 0Z" fill="#57AFE2" p-id="9119" data-darkreader-inline-fill="" style="--darkreader-inline-fill: #5eb2e3;"></path><path d="M467.3 130.1m-60 0a60 60 0 1 0 120 0 60 60 0 1 0-120 0Z" fill="#57B1E3" p-id="9120" data-darkreader-inline-fill="" style="--darkreader-inline-fill: #5eb4e4;"></path><path d="M460.7 131.3m-60 0a60 60 0 1 0 120 0 60 60 0 1 0-120 0Z" fill="#57B4E4" p-id="9121" data-darkreader-inline-fill="" style="--darkreader-inline-fill: #5db7e5;"></path><path d="M454.1 132.8m-60 0a60 60 0 1 0 120 0 60 60 0 1 0-120 0Z" fill="#57B6E5" p-id="9122" data-darkreader-inline-fill="" style="--darkreader-inline-fill: #5db9e6;"></path><path d="M447.5 134.3m-60 0a60 60 0 1 0 120 0 60 60 0 1 0-120 0Z" fill="#57B9E6" p-id="9123" data-darkreader-inline-fill="" style="--darkreader-inline-fill: #5dbce7;"></path><path d="M441 135.8m-60 0a60 60 0 1 0 120 0 60 60 0 1 0-120 0Z" fill="#57BBE7" p-id="9124" data-darkreader-inline-fill="" style="--darkreader-inline-fill: #5dbde8;"></path><path d="M434.5 137.6m-60 0a60 60 0 1 0 120 0 60 60 0 1 0-120 0Z" fill="#57BEE8" p-id="9125" data-darkreader-inline-fill="" style="--darkreader-inline-fill: #5dc0e9;"></path><path d="M428 139.5m-60 0a60 60 0 1 0 120 0 60 60 0 1 0-120 0Z" fill="#57C0E9" p-id="9126" data-darkreader-inline-fill="" style="--darkreader-inline-fill: #5cc2ea;"></path><path d="M421.6 141.4m-60 0a60 60 0 1 0 120 0 60 60 0 1 0-120 0Z" fill="#57C3EA" p-id="9127" data-darkreader-inline-fill="" style="--darkreader-inline-fill: #5cc5eb;"></path><path d="M415.2 143.5m-60 0a60 60 0 1 0 120 0 60 60 0 1 0-120 0Z" fill="#57C5EB" p-id="9128" data-darkreader-inline-fill="" style="--darkreader-inline-fill: #5cc7ec;"></path><path d="M408.8 145.7m-60 0a60 60 0 1 0 120 0 60 60 0 1 0-120 0Z" fill="#57C8EB" p-id="9129" data-darkreader-inline-fill="" style="--darkreader-inline-fill: #5ccaec;"></path><path d="M402.5 147.9m-60 0a60 60 0 1 0 120 0 60 60 0 1 0-120 0Z" fill="#57CAEC" p-id="9130" data-darkreader-inline-fill="" style="--darkreader-inline-fill: #5ccbed;"></path><path d="M396.2 150.4m-60 0a60 60 0 1 0 120 0 60 60 0 1 0-120 0Z" fill="#57CDED" p-id="9131" data-darkreader-inline-fill="" style="--darkreader-inline-fill: #5bceed;"></path><path d="M390 152.9m-60 0a60 60 0 1 0 120 0 60 60 0 1 0-120 0Z" fill="#58CFEE" p-id="9132" data-darkreader-inline-fill="" style="--darkreader-inline-fill: #5cd0ee;"></path><path d="M383.8 155.5m-60 0a60 60 0 1 0 120 0 60 60 0 1 0-120 0Z" fill="#58D2EF" p-id="9133" data-darkreader-inline-fill="" style="--darkreader-inline-fill: #5cd3ef;"></path><path d="M377.6 158.3m-60 0a60 60 0 1 0 120 0 60 60 0 1 0-120 0Z" fill="#58D4F0" p-id="9134" data-darkreader-inline-fill="" style="--darkreader-inline-fill: #5bd5f0;"></path><path d="M371.5 161m-60 0a60 60 0 1 0 120 0 60 60 0 1 0-120 0Z" fill="#58D7F1" p-id="9135" data-darkreader-inline-fill="" style="--darkreader-inline-fill: #5bd8f1;"></path><path d="M365.5 164m-60 0a60 60 0 1 0 120 0 60 60 0 1 0-120 0Z" fill="#58D9F2" p-id="9136" data-darkreader-inline-fill="" style="--darkreader-inline-fill: #5bdaf2;"></path><path d="M359.5 167.1m-60 0a60 60 0 1 0 120 0 60 60 0 1 0-120 0Z" fill="#58DCF3" p-id="9137" data-darkreader-inline-fill="" style="--darkreader-inline-fill: #5bddf3;"></path><path d="M353.5 170.1m-60 0a60 60 0 1 0 120 0 60 60 0 1 0-120 0Z" fill="#58DEF4" p-id="9138" data-darkreader-inline-fill="" style="--darkreader-inline-fill: #5adef4;"></path><path d="M347.6 173.5m-60 0a60 60 0 1 0 120 0 60 60 0 1 0-120 0Z" fill="#58E1F5" p-id="9139" data-darkreader-inline-fill="" style="--darkreader-inline-fill: #5ae1f5;"></path><path d="M341.8 176.8m-60 0a60 60 0 1 0 120 0 60 60 0 1 0-120 0Z" fill="#58E3F6" p-id="9140" data-darkreader-inline-fill="" style="--darkreader-inline-fill: #5ae3f6;"></path><path d="M336 180.2m-60 0a60 60 0 1 0 120 0 60 60 0 1 0-120 0Z" fill="#58E6F7" p-id="9141" data-darkreader-inline-fill="" style="--darkreader-inline-fill: #59e6f7;"></path><path d="M330.3 183.8m-60 0a60 60 0 1 0 120 0 60 60 0 1 0-120 0Z" fill="#58E8F8" p-id="9142" data-darkreader-inline-fill="" style="--darkreader-inline-fill: #59e8f8;"></path><path d="M324.6 187.5m-60 0a60 60 0 1 0 120 0 60 60 0 1 0-120 0Z" fill="#58EBF8" p-id="9143" data-darkreader-inline-fill="" style="--darkreader-inline-fill: #59ebf8;"></path><path d="M319 191.2m-60 0a60 60 0 1 0 120 0 60 60 0 1 0-120 0Z" fill="#59EDF9" p-id="9144" data-darkreader-inline-fill="" style="--darkreader-inline-fill: #5aedf9;"></path><path d="M313.6 195.1m-60 0a60 60 0 1 0 120 0 60 60 0 1 0-120 0Z" fill="#59F0FA" p-id="9145" data-darkreader-inline-fill="" style="--darkreader-inline-fill: #59f0fa;"></path><path d="M308.1 199m-60 0a60 60 0 1 0 120 0 60 60 0 1 0-120 0Z" fill="#59F2FB" p-id="9146" data-darkreader-inline-fill="" style="--darkreader-inline-fill: #59f2fb;"></path><path d="M302.7 203m-60 0a60 60 0 1 0 120 0 60 60 0 1 0-120 0Z" fill="#59F5FC" p-id="9147" data-darkreader-inline-fill="" style="--darkreader-inline-fill: #59f5fc;"></path><path d="M297.4 207.2m-60 0a60 60 0 1 0 120 0 60 60 0 1 0-120 0Z" fill="#59F7FD" p-id="9148" data-darkreader-inline-fill="" style="--darkreader-inline-fill: #58f7fd;"></path><path d="M292.1 211.4m-60 0a60 60 0 1 0 120 0 60 60 0 1 0-120 0Z" fill="#59FAFE" p-id="9149" data-darkreader-inline-fill="" style="--darkreader-inline-fill: #58fafe;"></path><path d="M287 275.7c33 0 60-27 60-60s-27-60-60-60-60 27-60 60c0 33.1 26.9 60 60 60z" fill="#59FCFF" p-id="9150" data-darkreader-inline-fill="" style="--darkreader-inline-fill: #58fcff;"></path><path d="M276.7 224.6m-60 0a60 60 0 1 0 120 0 60 60 0 1 0-120 0Z" fill="#59FBFF" p-id="9151" data-darkreader-inline-fill="" style="--darkreader-inline-fill: #58fbff;"></path><path d="M266.8 234m-60 0a60 60 0 1 0 120 0 60 60 0 1 0-120 0Z" fill="#5AF9FF" p-id="9152" data-darkreader-inline-fill="" style="--darkreader-inline-fill: #59f9ff;"></path><path d="M257.3 243.7m-60 0a60 60 0 1 0 120 0 60 60 0 1 0-120 0Z" fill="#5AF8FF" p-id="9153" data-darkreader-inline-fill="" style="--darkreader-inline-fill: #59f8ff;"></path><path d="M248 253.7m-60 0a60 60 0 1 0 120 0 60 60 0 1 0-120 0Z" fill="#5BF6FF" p-id="9154" data-darkreader-inline-fill="" style="--darkreader-inline-fill: #59f6ff;"></path><path d="M239.1 263.9m-60 0a60 60 0 1 0 120 0 60 60 0 1 0-120 0Z" fill="#5BF5FF" p-id="9155" data-darkreader-inline-fill="" style="--darkreader-inline-fill: #59f5ff;"></path><path d="M230.7 274.6m-60 0a60 60 0 1 0 120 0 60 60 0 1 0-120 0Z" fill="#5BF3FF" p-id="9156" data-darkreader-inline-fill="" style="--darkreader-inline-fill: #59f3ff;"></path><path d="M222.5 285.5m-60 0a60 60 0 1 0 120 0 60 60 0 1 0-120 0Z" fill="#5CF2FF" p-id="9157" data-darkreader-inline-fill="" style="--darkreader-inline-fill: #5af2ff;"></path><path d="M214.7 296.6m-60 0a60 60 0 1 0 120 0 60 60 0 1 0-120 0Z" fill="#5CF0FF" p-id="9158" data-darkreader-inline-fill="" style="--darkreader-inline-fill: #5af0ff;"></path><path d="M207.4 308.1m-60 0a60 60 0 1 0 120 0 60 60 0 1 0-120 0Z" fill="#5CEFFF" p-id="9159" data-darkreader-inline-fill="" style="--darkreader-inline-fill: #5aefff;"></path><path d="M200.5 319.8m-60 0a60 60 0 1 0 120 0 60 60 0 1 0-120 0Z" fill="#5DEDFF" p-id="9160" data-darkreader-inline-fill="" style="--darkreader-inline-fill: #5bedff;"></path><path d="M193.9 331.7m-60 0a60 60 0 1 0 120 0 60 60 0 1 0-120 0Z" fill="#5DECFF" p-id="9161" data-darkreader-inline-fill="" style="--darkreader-inline-fill: #5becff;"></path><path d="M187.8 343.9m-60 0a60 60 0 1 0 120 0 60 60 0 1 0-120 0Z" fill="#5EEAFF" p-id="9162" data-darkreader-inline-fill="" style="--darkreader-inline-fill: #5beaff;"></path><path d="M182.2 356.3m-60 0a60 60 0 1 0 120 0 60 60 0 1 0-120 0Z" fill="#5EE9FF" p-id="9163" data-darkreader-inline-fill="" style="--darkreader-inline-fill: #5be9ff;"></path><path d="M176.9 368.8m-60 0a60 60 0 1 0 120 0 60 60 0 1 0-120 0Z" fill="#5EE7FF" p-id="9164" data-darkreader-inline-fill="" style="--darkreader-inline-fill: #5be7ff;"></path><path d="M172.1 381.5m-60 0a60 60 0 1 0 120 0 60 60 0 1 0-120 0Z" fill="#5FE6FF" p-id="9165" data-darkreader-inline-fill="" style="--darkreader-inline-fill: #5ce6ff;"></path><path d="M167.7 394.4m-60 0a60 60 0 1 0 120 0 60 60 0 1 0-120 0Z" fill="#5FE4FF" p-id="9166" data-darkreader-inline-fill="" style="--darkreader-inline-fill: #5ce3ff;"></path><path d="M163.9 407.5m-60 0a60 60 0 1 0 120 0 60 60 0 1 0-120 0Z" fill="#5FE3FF" p-id="9167" data-darkreader-inline-fill="" style="--darkreader-inline-fill: #5ce2ff;"></path><path d="M160.5 420.6m-60 0a60 60 0 1 0 120 0 60 60 0 1 0-120 0Z" fill="#60E1FF" p-id="9168" data-darkreader-inline-fill="" style="--darkreader-inline-fill: #5de0ff;"></path><path d="M157.4 433.9m-60 0a60 60 0 1 0 120 0 60 60 0 1 0-120 0Z" fill="#60E0FF" p-id="9169" data-darkreader-inline-fill="" style="--darkreader-inline-fill: #5ddfff;"></path><path d="M155 447.3m-60 0a60 60 0 1 0 120 0 60 60 0 1 0-120 0Z" fill="#61DEFF" p-id="9170" data-darkreader-inline-fill="" style="--darkreader-inline-fill: #5dddff;"></path><path d="M153 460.7m-60 0a60 60 0 1 0 120 0 60 60 0 1 0-120 0Z" fill="#61DDFF" p-id="9171" data-darkreader-inline-fill="" style="--darkreader-inline-fill: #5ddcff;"></path><path d="M151.4 474.2m-60 0a60 60 0 1 0 120 0 60 60 0 1 0-120 0Z" fill="#61DBFF" p-id="9172" data-darkreader-inline-fill="" style="--darkreader-inline-fill: #5ddaff;"></path><path d="M150.4 487.8m-60 0a60 60 0 1 0 120 0 60 60 0 1 0-120 0Z" fill="#62DAFF" p-id="9173" data-darkreader-inline-fill="" style="--darkreader-inline-fill: #5ed9ff;"></path><path d="M149.8 501.4m-60 0a60 60 0 1 0 120 0 60 60 0 1 0-120 0Z" fill="#62D8FF" p-id="9174" data-darkreader-inline-fill="" style="--darkreader-inline-fill: #5ed7ff;"></path><path d="M149.6 515m-60 0a60 60 0 1 0 120 0 60 60 0 1 0-120 0Z" fill="#63D7FF" p-id="9175" data-darkreader-inline-fill="" style="--darkreader-inline-fill: #5fd6ff;"></path><path d="M150 528.6m-60 0a60 60 0 1 0 120 0 60 60 0 1 0-120 0Z" fill="#63D5FF" p-id="9176" data-darkreader-inline-fill="" style="--darkreader-inline-fill: #5fd4ff;"></path><path d="M150.8 542.2m-60 0a60 60 0 1 0 120 0 60 60 0 1 0-120 0Z" fill="#63D4FF" p-id="9177" data-darkreader-inline-fill="" style="--darkreader-inline-fill: #5fd3ff;"></path><path d="M152.1 555.7m-60 0a60 60 0 1 0 120 0 60 60 0 1 0-120 0Z" fill="#64D2FF" p-id="9178" data-darkreader-inline-fill="" style="--darkreader-inline-fill: #60d1ff;"></path><path d="M153.8 569.2m-60 0a60 60 0 1 0 120 0 60 60 0 1 0-120 0Z" fill="#64D1FF" p-id="9179" data-darkreader-inline-fill="" style="--darkreader-inline-fill: #60d0ff;"></path><path d="M156.1 582.6m-60 0a60 60 0 1 0 120 0 60 60 0 1 0-120 0Z" fill="#64CFFF" p-id="9180" data-darkreader-inline-fill="" style="--darkreader-inline-fill: #60ceff;"></path><path d="M158.8 596m-60 0a60 60 0 1 0 120 0 60 60 0 1 0-120 0Z" fill="#65CEFF" p-id="9181" data-darkreader-inline-fill="" style="--darkreader-inline-fill: #60ccff;"></path><path d="M161.8 609.2m-60 0a60 60 0 1 0 120 0 60 60 0 1 0-120 0Z" fill="#65CCFF" p-id="9182" data-darkreader-inline-fill="" style="--darkreader-inline-fill: #60caff;"></path><path d="M165.5 622.3m-60 0a60 60 0 1 0 120 0 60 60 0 1 0-120 0Z" fill="#66CBFF" p-id="9183" data-darkreader-inline-fill="" style="--darkreader-inline-fill: #61c9ff;"></path><path d="M169.6 635.3m-60 0a60 60 0 1 0 120 0 60 60 0 1 0-120 0Z" fill="#66C9FF" p-id="9184" data-darkreader-inline-fill="" style="--darkreader-inline-fill: #61c7ff;"></path><path d="M174.1 648.1m-60 0a60 60 0 1 0 120 0 60 60 0 1 0-120 0Z" fill="#66C8FF" p-id="9185" data-darkreader-inline-fill="" style="--darkreader-inline-fill: #61c6ff;"></path><path d="M179.1 660.8m-60 0a60 60 0 1 0 120 0 60 60 0 1 0-120 0Z" fill="#67C6FF" p-id="9186" data-darkreader-inline-fill="" style="--darkreader-inline-fill: #62c4ff;"></path><path d="M184.6 673.2m-60 0a60 60 0 1 0 120 0 60 60 0 1 0-120 0Z" fill="#67C5FF" p-id="9187" data-darkreader-inline-fill="" style="--darkreader-inline-fill: #62c3ff;"></path><path d="M190.5 685.5m-60 0a60 60 0 1 0 120 0 60 60 0 1 0-120 0Z" fill="#67C3FF" p-id="9188" data-darkreader-inline-fill="" style="--darkreader-inline-fill: #62c1ff;"></path><path d="M196.7 697.6m-60 0a60 60 0 1 0 120 0 60 60 0 1 0-120 0Z" fill="#68C2FF" p-id="9189" data-darkreader-inline-fill="" style="--darkreader-inline-fill: #62c0ff;"></path><path d="M203.5 709.4m-60 0a60 60 0 1 0 120 0 60 60 0 1 0-120 0Z" fill="#68C0FF" p-id="9190" data-darkreader-inline-fill="" style="--darkreader-inline-fill: #62beff;"></path><path d="M210.6 720.9m-60 0a60 60 0 1 0 120 0 60 60 0 1 0-120 0Z" fill="#69BFFF" p-id="9191" data-darkreader-inline-fill="" style="--darkreader-inline-fill: #63bdff;"></path><path d="M218.1 732.3m-60 0a60 60 0 1 0 120 0 60 60 0 1 0-120 0Z" fill="#69BDFF" p-id="9192" data-darkreader-inline-fill="" style="--darkreader-inline-fill: #63bdff;"></path><path d="M226 743.4m-60 0a60 60 0 1 0 120 0 60 60 0 1 0-120 0Z" fill="#69BCFF" p-id="9193" data-darkreader-inline-fill="" style="--darkreader-inline-fill: #63bcff;"></path><path d="M234.3 754.1m-60 0a60 60 0 1 0 120 0 60 60 0 1 0-120 0Z" fill="#6ABAFF" p-id="9194" data-darkreader-inline-fill="" style="--darkreader-inline-fill: #64bcff;"></path><path d="M243 764.6m-60 0a60 60 0 1 0 120 0 60 60 0 1 0-120 0Z" fill="#6AB9FF" p-id="9195" data-darkreader-inline-fill="" style="--darkreader-inline-fill: #64bbff;"></path><path d="M252 774.8m-60 0a60 60 0 1 0 120 0 60 60 0 1 0-120 0Z" fill="#6AB7FF" p-id="9196" data-darkreader-inline-fill="" style="--darkreader-inline-fill: #64baff;"></path><path d="M261.4 784.6m-60 0a60 60 0 1 0 120 0 60 60 0 1 0-120 0Z" fill="#6BB6FF" p-id="9197" data-darkreader-inline-fill="" style="--darkreader-inline-fill: #64baff;"></path><path d="M271.2 794.1m-60 0a60 60 0 1 0 120 0 60 60 0 1 0-120 0Z" fill="#6BB4FF" p-id="9198" data-darkreader-inline-fill="" style="--darkreader-inline-fill: #64b9ff;"></path><path d="M281.2 803.3m-60 0a60 60 0 1 0 120 0 60 60 0 1 0-120 0Z" fill="#6CB3FF" p-id="9199" data-darkreader-inline-fill="" style="--darkreader-inline-fill: #65b9ff;"></path><path d="M291.5 812.2m-60 0a60 60 0 1 0 120 0 60 60 0 1 0-120 0Z" fill="#6CB1FF" p-id="9200" data-darkreader-inline-fill="" style="--darkreader-inline-fill: #65b8ff;"></path><path d="M302.2 820.6m-60 0a60 60 0 1 0 120 0 60 60 0 1 0-120 0Z" fill="#6CB0FF" p-id="9201" data-darkreader-inline-fill="" style="--darkreader-inline-fill: #65b8ff;"></path><path d="M313.1 828.7m-60 0a60 60 0 1 0 120 0 60 60 0 1 0-120 0Z" fill="#6DAEFF" p-id="9202" data-darkreader-inline-fill="" style="--darkreader-inline-fill: #66b7ff;"></path><path d="M324.4 836.4m-60 0a60 60 0 1 0 120 0 60 60 0 1 0-120 0Z" fill="#6DADFF" p-id="9203" data-darkreader-inline-fill="" style="--darkreader-inline-fill: #66b7ff;"></path><path d="M335.8 843.7m-60 0a60 60 0 1 0 120 0 60 60 0 1 0-120 0Z" fill="#6EABFF" p-id="9204" data-darkreader-inline-fill="" style="--darkreader-inline-fill: #66b6ff;"></path><path d="M347.6 850.5m-60 0a60 60 0 1 0 120 0 60 60 0 1 0-120 0Z" fill="#6EAAFF" p-id="9205" data-darkreader-inline-fill="" style="--darkreader-inline-fill: #66b6ff;"></path><path d="M359.5 857m-60 0a60 60 0 1 0 120 0 60 60 0 1 0-120 0Z" fill="#6EA8FF" p-id="9206" data-darkreader-inline-fill="" style="--darkreader-inline-fill: #66b5ff;"></path><path d="M371.7 863.1m-60 0a60 60 0 1 0 120 0 60 60 0 1 0-120 0Z" fill="#6FA7FF" p-id="9207" data-darkreader-inline-fill="" style="--darkreader-inline-fill: #67b5ff;"></path><path d="M384.1 868.7m-60 0a60 60 0 1 0 120 0 60 60 0 1 0-120 0Z" fill="#6FA5FF" p-id="9208" data-darkreader-inline-fill="" style="--darkreader-inline-fill: #67b4ff;"></path><path d="M396.7 873.8m-60 0a60 60 0 1 0 120 0 60 60 0 1 0-120 0Z" fill="#6FA4FF" p-id="9209" data-darkreader-inline-fill="" style="--darkreader-inline-fill: #67b3ff;"></path><path d="M409.4 878.6m-60 0a60 60 0 1 0 120 0 60 60 0 1 0-120 0Z" fill="#70A2FF" p-id="9210" data-darkreader-inline-fill="" style="--darkreader-inline-fill: #68b3ff;"></path><path d="M422.3 882.9m-60 0a60 60 0 1 0 120 0 60 60 0 1 0-120 0Z" fill="#70A1FF" p-id="9211" data-darkreader-inline-fill="" style="--darkreader-inline-fill: #68b2ff;"></path><path d="M435.4 886.6m-60 0a60 60 0 1 0 120 0 60 60 0 1 0-120 0Z" fill="#719FFF" p-id="9212" data-darkreader-inline-fill="" style="--darkreader-inline-fill: #69b2ff;"></path><path d="M448.6 890m-60 0a60 60 0 1 0 120 0 60 60 0 1 0-120 0Z" fill="#719EFF" p-id="9213" data-darkreader-inline-fill="" style="--darkreader-inline-fill: #69b1ff;"></path><path d="M461.9 892.9m-60 0a60 60 0 1 0 120 0 60 60 0 1 0-120 0Z" fill="#719CFF" p-id="9214" data-darkreader-inline-fill="" style="--darkreader-inline-fill: #69b1ff;"></path><path d="M475.3 895.3m-60 0a60 60 0 1 0 120 0 60 60 0 1 0-120 0Z" fill="#729BFF" p-id="9215" data-darkreader-inline-fill="" style="--darkreader-inline-fill: #69b0ff;"></path><path d="M488.7 897.2m-60 0a60 60 0 1 0 120 0 60 60 0 1 0-120 0Z" fill="#7299FF" p-id="9216" data-darkreader-inline-fill="" style="--darkreader-inline-fill: #69afff;"></path><path d="M502.3 898.7m-60 0a60 60 0 1 0 120 0 60 60 0 1 0-120 0Z" fill="#7298FF" p-id="9217" data-darkreader-inline-fill="" style="--darkreader-inline-fill: #69afff;"></path><path d="M515.8 899.8m-60 0a60 60 0 1 0 120 0 60 60 0 1 0-120 0Z" fill="#7396FF" p-id="9218" data-darkreader-inline-fill="" style="--darkreader-inline-fill: #6aaeff;"></path><path d="M529.4 900.2m-60 0a60 60 0 1 0 120 0 60 60 0 1 0-120 0Z" fill="#7395FF" p-id="9219" data-darkreader-inline-fill="" style="--darkreader-inline-fill: #6aaeff;"></path><path d="M543 900.4m-60 0a60 60 0 1 0 120 0 60 60 0 1 0-120 0Z" fill="#7493FF" p-id="9220" data-darkreader-inline-fill="" style="--darkreader-inline-fill: #6badff;"></path><path d="M556.6 899.9m-60 0a60 60 0 1 0 120 0 60 60 0 1 0-120 0Z" fill="#7492FF" p-id="9221" data-darkreader-inline-fill="" style="--darkreader-inline-fill: #6badff;"></path><path d="M570.2 899.1m-60 0a60 60 0 1 0 120 0 60 60 0 1 0-120 0Z" fill="#7490FF" p-id="9222" data-darkreader-inline-fill="" style="--darkreader-inline-fill: #6bacff;"></path><path d="M583.7 897.7m-60 0a60 60 0 1 0 120 0 60 60 0 1 0-120 0Z" fill="#758FFF" p-id="9223" data-darkreader-inline-fill="" style="--darkreader-inline-fill: #6bacff;"></path><path d="M597.2 895.9m-60 0a60 60 0 1 0 120 0 60 60 0 1 0-120 0Z" fill="#758DFF" p-id="9224" data-darkreader-inline-fill="" style="--darkreader-inline-fill: #6babff;"></path><path d="M610.6 893.5m-60 0a60 60 0 1 0 120 0 60 60 0 1 0-120 0Z" fill="#768CFF" p-id="9225" data-darkreader-inline-fill="" style="--darkreader-inline-fill: #6cabff;"></path><path d="M623.9 890.8m-60 0a60 60 0 1 0 120 0 60 60 0 1 0-120 0Z" fill="#768AFF" p-id="9226" data-darkreader-inline-fill="" style="--darkreader-inline-fill: #6caaff;"></path><path d="M637.1 887.5m-60 0a60 60 0 1 0 120 0 60 60 0 1 0-120 0Z" fill="#7689FF" p-id="9227" data-darkreader-inline-fill="" style="--darkreader-inline-fill: #6ca9ff;"></path><path d="M650.2 883.9m-60 0a60 60 0 1 0 120 0 60 60 0 1 0-120 0Z" fill="#7787FF" p-id="9228" data-darkreader-inline-fill="" style="--darkreader-inline-fill: #6da9ff;"></path><path d="M663.2 879.7m-60 0a60 60 0 1 0 120 0 60 60 0 1 0-120 0Z" fill="#7786FF" p-id="9229" data-darkreader-inline-fill="" style="--darkreader-inline-fill: #6da8ff;"></path><path d="M676 875.1m-60 0a60 60 0 1 0 120 0 60 60 0 1 0-120 0Z" fill="#7784FF" p-id="9230" data-darkreader-inline-fill="" style="--darkreader-inline-fill: #6da7ff;"></path><path d="M688.6 870m-60 0a60 60 0 1 0 120 0 60 60 0 1 0-120 0Z" fill="#7883FF" p-id="9231" data-darkreader-inline-fill="" style="--darkreader-inline-fill: #6ea7ff;"></path><path d="M701.1 864.5m-60 0a60 60 0 1 0 120 0 60 60 0 1 0-120 0Z" fill="#7881FF" p-id="9232" data-darkreader-inline-fill="" style="--darkreader-inline-fill: #6ea6ff;"></path><path d="M713.3 858.6m-60 0a60 60 0 1 0 120 0 60 60 0 1 0-120 0Z" fill="#7980FF" p-id="9233" data-darkreader-inline-fill="" style="--darkreader-inline-fill: #6ea6ff;"></path><path d="M725.3 852.2m-60 0a60 60 0 1 0 120 0 60 60 0 1 0-120 0Z" fill="#797EFF" p-id="9234" data-darkreader-inline-fill="" style="--darkreader-inline-fill: #6ea5ff;"></path><path d="M737.1 845.4m-60 0a60 60 0 1 0 120 0 60 60 0 1 0-120 0Z" fill="#797DFF" p-id="9235" data-darkreader-inline-fill="" style="--darkreader-inline-fill: #6ea5ff;"></path><path d="M748.7 838.3m-60 0a60 60 0 1 0 120 0 60 60 0 1 0-120 0Z" fill="#7A7BFF" p-id="9236" data-darkreader-inline-fill="" style="--darkreader-inline-fill: #6fa4ff;"></path><path d="M760 830.7m-60 0a60 60 0 1 0 120 0 60 60 0 1 0-120 0Z" fill="#7A7AFF" p-id="9237" data-darkreader-inline-fill="" style="--darkreader-inline-fill: #6fa3ff;"></path><path d="M771 822.7m-60 0a60 60 0 1 0 120 0 60 60 0 1 0-120 0Z" fill="#7A78FF" p-id="9238" data-darkreader-inline-fill="" style="--darkreader-inline-fill: #6ea2ff;"></path><path d="M781.7 814.4m-60 0a60 60 0 1 0 120 0 60 60 0 1 0-120 0Z" fill="#7B77FF" p-id="9239" data-darkreader-inline-fill="" style="--darkreader-inline-fill: #6da0ff;"></path><path d="M792.2 805.7m-60 0a60 60 0 1 0 120 0 60 60 0 1 0-120 0Z" fill="#7B75FF" p-id="9240" data-darkreader-inline-fill="" style="--darkreader-inline-fill: #6b9fff;"></path><path d="M802.3 796.6m-60 0a60 60 0 1 0 120 0 60 60 0 1 0-120 0Z" fill="#7C74FF" p-id="9241" data-darkreader-inline-fill="" style="--darkreader-inline-fill: #6b9eff;"></path><path d="M812.1 787.2m-60 0a60 60 0 1 0 120 0 60 60 0 1 0-120 0Z" fill="#7C72FF" p-id="9242" data-darkreader-inline-fill="" style="--darkreader-inline-fill: #699cff;"></path><path d="M821.6 777.4m-60 0a60 60 0 1 0 120 0 60 60 0 1 0-120 0Z" fill="#7C71FF" p-id="9243" data-darkreader-inline-fill="" style="--darkreader-inline-fill: #699bff;"></path><path d="M830.7 767.3m-60 0a60 60 0 1 0 120 0 60 60 0 1 0-120 0Z" fill="#7D6FFF" p-id="9244" data-darkreader-inline-fill="" style="--darkreader-inline-fill: #7667ff;"></path><path d="M839.5 756.9m-60 0a60 60 0 1 0 120 0 60 60 0 1 0-120 0Z" fill="#7D6EFF" p-id="9245" data-darkreader-inline-fill="" style="--darkreader-inline-fill: #7666ff;"></path><path d="M847.8 746.2m-60 0a60 60 0 1 0 120 0 60 60 0 1 0-120 0Z" fill="#7D6CFF" p-id="9246" data-darkreader-inline-fill="" style="--darkreader-inline-fill: #7765ff;"></path><path d="M855.8 735.2m-60 0a60 60 0 1 0 120 0 60 60 0 1 0-120 0Z" fill="#7E6BFF" p-id="9247" data-darkreader-inline-fill="" style="--darkreader-inline-fill: #7864ff;"></path><path d="M863.5 723.9m-60 0a60 60 0 1 0 120 0 60 60 0 1 0-120 0Z" fill="#7E69FF" p-id="9248" data-darkreader-inline-fill="" style="--darkreader-inline-fill: #7963ff;"></path><path d="M870.7 712.4m-60 0a60 60 0 1 0 120 0 60 60 0 1 0-120 0Z" fill="#7F68FF" p-id="9249" data-darkreader-inline-fill="" style="--darkreader-inline-fill: #7a62ff;"></path><path d="M874.4 699.8m-60 0a60 60 0 1 0 120 0 60 60 0 1 0-120 0Z" fill="#7F66FF" p-id="9250" data-darkreader-inline-fill="" style="--darkreader-inline-fill: #7b61ff;"></path><path d="M874.4 686.2m-60 0a60 60 0 1 0 120 0 60 60 0 1 0-120 0Z" fill="#7F65FF" p-id="9251" data-darkreader-inline-fill="" style="--darkreader-inline-fill: #7b60ff;"></path><path d="M874.4 672.6m-60 0a60 60 0 1 0 120 0 60 60 0 1 0-120 0Z" fill="#8063FF" p-id="9252" data-darkreader-inline-fill="" style="--darkreader-inline-fill: #7d5fff;"></path><path d="M874.4 659m-60 0a60 60 0 1 0 120 0 60 60 0 1 0-120 0Z" fill="#8062FF" p-id="9253" data-darkreader-inline-fill="" style="--darkreader-inline-fill: #7d5eff;"></path><path d="M874.4 645.4m-60 0a60 60 0 1 0 120 0 60 60 0 1 0-120 0Z" fill="#8160FF" p-id="9254" data-darkreader-inline-fill="" style="--darkreader-inline-fill: #7e5dff;"></path><path d="M874.4 631.8m-60 0a60 60 0 1 0 120 0 60 60 0 1 0-120 0Z" fill="#815FFF" p-id="9255" data-darkreader-inline-fill="" style="--darkreader-inline-fill: #7f5cff;"></path><path d="M861 631.5m-60 0a60 60 0 1 0 120 0 60 60 0 1 0-120 0Z" fill="#815DFF" p-id="9256" data-darkreader-inline-fill="" style="--darkreader-inline-fill: #7f5bff;"></path><path d="M847.4 631.5m-60 0a60 60 0 1 0 120 0 60 60 0 1 0-120 0Z" fill="#825CFF" p-id="9257" data-darkreader-inline-fill="" style="--darkreader-inline-fill: #805aff;"></path><path d="M833.8 631.5m-60 0a60 60 0 1 0 120 0 60 60 0 1 0-120 0Z" fill="#825AFF" p-id="9258" data-darkreader-inline-fill="" style="--darkreader-inline-fill: #8159ff;"></path><path d="M820.2 631.5m-60 0a60 60 0 1 0 120 0 60 60 0 1 0-120 0Z" fill="#8259FF" p-id="9259" data-darkreader-inline-fill="" style="--darkreader-inline-fill: #8158ff;"></path><path d="M806.6 631.5m-60 0a60 60 0 1 0 120 0 60 60 0 1 0-120 0Z" fill="#8357FF" p-id="9260" data-darkreader-inline-fill="" style="--darkreader-inline-fill: #8356ff;"></path><path d="M793 631.5m-60 0a60 60 0 1 0 120 0 60 60 0 1 0-120 0Z" fill="#8356FF" p-id="9261" data-darkreader-inline-fill="" style="--darkreader-inline-fill: #8356ff;"></path><path d="M779.4 631.5m-60 0a60 60 0 1 0 120 0 60 60 0 1 0-120 0Z" fill="#8454FF" p-id="9262" data-darkreader-inline-fill="" style="--darkreader-inline-fill: #8454ff;"></path><path d="M765.8 631.5m-60 0a60 60 0 1 0 120 0 60 60 0 1 0-120 0Z" fill="#8453FF" p-id="9263" data-darkreader-inline-fill="" style="--darkreader-inline-fill: #8454ff;"></path><path d="M752.2 631.5m-60 0a60 60 0 1 0 120 0 60 60 0 1 0-120 0Z" fill="#8451FF" p-id="9264" data-darkreader-inline-fill="" style="--darkreader-inline-fill: #8552ff;"></path><path d="M738.6 631.5m-60 0a60 60 0 1 0 120 0 60 60 0 1 0-120 0Z" fill="#8550FF" p-id="9265" data-darkreader-inline-fill="" style="--darkreader-inline-fill: #8652ff;"></path><path d="M725 631.5m-60 0a60 60 0 1 0 120 0 60 60 0 1 0-120 0Z" fill="#854EFF" p-id="9266" data-darkreader-inline-fill="" style="--darkreader-inline-fill: #8650ff;"></path><path d="M711.4 631.5m-60 0a60 60 0 1 0 120 0 60 60 0 1 0-120 0Z" fill="#854DFF" p-id="9267" data-darkreader-inline-fill="" style="--darkreader-inline-fill: #874fff;"></path><path d="M697.8 631.5m-60 0a60 60 0 1 0 120 0 60 60 0 1 0-120 0Z" fill="#864BFF" p-id="9268" data-darkreader-inline-fill="" style="--darkreader-inline-fill: #884eff;"></path><path d="M684.2 631.5m-60 0a60 60 0 1 0 120 0 60 60 0 1 0-120 0Z" fill="#864AFF" p-id="9269" data-darkreader-inline-fill="" style="--darkreader-inline-fill: #884dff;"></path><path d="M670.6 631.5m-60 0a60 60 0 1 0 120 0 60 60 0 1 0-120 0Z" fill="#8748FF" p-id="9270" data-darkreader-inline-fill="" style="--darkreader-inline-fill: #8a4cff;"></path><path d="M657.1 691.5c33 0 60-27 60-60s-27-60-60-60-60 27-60 60 27 60 60 60z" fill="#8747FF" p-id="9271" data-darkreader-inline-fill="" style="--darkreader-inline-fill: #8a4bff;"></path></svg>